<svg class="img-fluid" id="outputsvg" xmlns="http://www.w3.org/2000/svg" width="400" height="500" viewBox="11731.3828125 7427 4696.40234375 5236.169921875" version="1.1" xmlns:xlink="http://www.w3.org/1999/xlink"><g id="l1VjsrTlkln4pSj9qLMQQ4O" fill="rgb(224,232,229)" style="transform: none;"><g style="transform: none;"/></g><g id="l6IydnXzhKwEkOdFqTPgdDH" fill="rgb(21,160,114)" style="transform: none;"><g style="transform: none;"><path id="pwhxAF4aH" d="M13410 12660 l-685 -6 -98 -26 c-223 -61 -390 -159 -552 -323 -160 -161 -248 -318 -313 -554 l-27 -96 -3 -1063 c-2 -694 1 -1063 7 -1060 6 1 371 361 812 798 441 437 807 798 814 802 10 6 14 -16 20 -90 17 -243 66 -540 147 -882 63 -271 219 -756 322 -1005 21 -49 56 -135 78 -190 61 -154 214 -471 325 -675 155 -286 434 -753 501 -839 l19 -24 6 49 c3 27 4 769 3 1649 -2 880 -1 1693 3 1807 l6 207 415 -411 c228 -227 593 -589 810 -805 218 -216 399 -393 403 -393 4 0 6 480 4 1068 -3 1058 -3 1068 -24 1148 -95 356 -318 640 -621 793 -87 44 -252 98 -337 110 -85 13 -1092 18 -2035 11z"/></g></g></svg>