{"scene":0,"asset":{"generator":"ImageToStl.com","version":"2.0"},"scenes":[{"name":"Scene","nodes":[0]}],"nodes":[{"name":"Node0","children":[1]},{"name":"Node1","mesh":0}],"materials":[{"name":"x1","pbrMetallicRoughness":{"baseColorFactor":[0.85,0.85,0.85,1.0],"metallicFactor":0.05,"roughnessFactor":0.5},"doubleSided":true}],"meshes":[{"name":"Mesh0","primitives":[{"indices":2,"material":0,"attributes":{"POSITION":0,"NORMAL":1}}]}],"accessors":[{"bufferView":0,"componentType":5126,"count":101004,"type":"VEC3","min":[-76.062454,-85.00016,-55.796707],"max":[59.33648,87.24013,79.09167]},{"bufferView":1,"componentType":5126,"count":101004,"type":"VEC3"},{"bufferView":2,"componentType":5125,"count":101004,"type":"SCALAR"}],"bufferViews":[{"target":34962,"buffer":0,"byteLength":1212048,"byteOffset":0},{"target":34962,"buffer":0,"byteLength":1212048,"byteOffset":1212048},{"target":34963,"buffer":0,"byteLength":404016,"byteOffset":2424096}],"buffers":[{"byteLength":2828112,"uri":"data:application/octet-stream;base64,"}]}